<svg width="237" height="80" viewBox="0 0 237 80" fill="none" xmlns="http://www.w3.org/2000/svg">
<path d="M9.19549 19.4675H21.5437V31.4363H0L9.19549 19.4675Z" fill="#030233"/>
<path d="M14.063 31.4363L21.5434 19.4676L32.3153 52.5312L55.9535 0.317627H69.1191L37.2524 71.2323H26.1813L14.063 31.4363Z" fill="#1A2580" fill-opacity="0.933333"/>
<path d="M64.9906 19.4675H77.4479L54.5577 71.3819H41.5903L64.9906 19.4675Z" fill="#1A2580" fill-opacity="0.933333"/>
<path d="M89.0341 50.6824L81.8874 28.2489H88.9379L92.6234 42.5102L96.3089 28.2489H103.359L96.2128 50.6824H89.0341ZM111.369 28.2489H117.778V50.6824H111.369V28.2489ZM149.724 37.4466V40.1066C149.724 43.3114 148.688 45.9607 146.615 48.0545C144.564 50.1482 141.861 51.1951 138.507 51.1951C135.003 51.1951 132.14 50.0841 129.918 47.8622C127.696 45.6188 126.585 42.8307 126.585 39.4977C126.585 36.1647 127.696 33.3766 129.918 31.1332C132.14 28.8685 134.918 27.7362 138.251 27.7362C140.344 27.7362 142.257 28.2062 143.987 29.1463C145.739 30.0863 147.117 31.3576 148.121 32.9599L142.673 36.0686C141.776 34.7012 140.344 34.0175 138.379 34.0175C136.777 34.0175 135.473 34.5303 134.469 35.5558C133.486 36.5813 132.995 37.906 132.995 39.5297C132.995 41.068 133.454 42.414 134.373 43.5678C135.292 44.7001 136.712 45.2663 138.635 45.2663C140.857 45.2663 142.342 44.4758 143.09 42.8948H138.315V37.4466H149.724ZM178.069 47.8301C175.783 50.0735 172.973 51.1951 169.64 51.1951C166.307 51.1951 163.487 50.0735 161.18 47.8301C158.894 45.5654 157.751 42.7773 157.751 39.4656C157.751 36.154 158.894 33.3766 161.18 31.1332C163.487 28.8685 166.307 27.7362 169.64 27.7362C172.973 27.7362 175.783 28.8685 178.069 31.1332C180.376 33.3766 181.53 36.154 181.53 39.4656C181.53 42.7773 180.376 45.5654 178.069 47.8301ZM165.698 43.3755C166.745 44.401 168.059 44.9138 169.64 44.9138C171.221 44.9138 172.525 44.401 173.55 43.3755C174.597 42.3286 175.12 41.0253 175.12 39.4656C175.12 37.906 174.597 36.6134 173.55 35.5879C172.525 34.541 171.221 34.0175 169.64 34.0175C168.059 34.0175 166.745 34.541 165.698 35.5879C164.673 36.6134 164.16 37.906 164.16 39.4656C164.16 41.0253 164.673 42.3286 165.698 43.3755ZM205.758 48.9838C204.07 50.458 201.869 51.1951 199.156 51.1951C196.443 51.1951 194.242 50.458 192.554 48.9838C190.866 47.5096 190.022 45.5761 190.022 43.1832V28.2489H196.432V42.4781C196.432 44.1446 197.34 44.9779 199.156 44.9779C200.972 44.9779 201.88 44.1446 201.88 42.4781V28.2489H208.29V43.1832C208.29 45.5761 207.446 47.5096 205.758 48.9838ZM229.165 50.6503L225.608 43.5998H224.006V50.6503H217.596V28.2169H226.569C229.026 28.2169 231.056 28.9433 232.658 30.3961C234.261 31.8276 235.062 33.7291 235.062 36.1006C235.062 37.4253 234.752 38.6217 234.133 39.69C233.534 40.7582 232.691 41.6235 231.601 42.2859L236.023 50.6503H229.165ZM224.006 34.1137V38.2799H226.441C227.125 38.3012 227.659 38.1303 228.044 37.7671C228.45 37.4039 228.652 36.8911 228.652 36.2288C228.652 35.5665 228.45 35.0537 228.044 34.6905C227.659 34.306 227.125 34.1137 226.441 34.1137H224.006ZM87.4011 62.151V60.0863H98.2488V62.151H94.0465V73.6824H91.6034V62.151H87.4011ZM101.836 73.6824V60.0863H110.678V62.151H104.298V65.8421H110.22V67.9067H104.298V71.6177H110.731V73.6824H101.836ZM126.324 64.6737H123.841C123.77 64.2665 123.64 63.9058 123.45 63.5916C123.259 63.2729 123.023 63.0029 122.739 62.7817C122.456 62.5604 122.133 62.3944 121.77 62.2837C121.412 62.1687 121.024 62.1111 120.608 62.1111C119.869 62.1111 119.214 62.297 118.643 62.6688C118.072 63.0361 117.625 63.5761 117.302 64.2886C116.979 64.9968 116.818 65.862 116.818 66.8844C116.818 67.9244 116.979 68.8007 117.302 69.5133C117.63 70.2214 118.077 70.7569 118.643 71.1198C119.214 71.4783 119.867 71.6576 120.602 71.6576C121.009 71.6576 121.389 71.6045 121.743 71.4982C122.102 71.3876 122.423 71.2261 122.706 71.0136C122.994 70.8012 123.235 70.5401 123.43 70.2303C123.629 69.9205 123.766 69.5664 123.841 69.1681L126.324 69.1813C126.231 69.8275 126.03 70.4338 125.72 71.0003C125.415 71.5668 125.014 72.067 124.518 72.5007C124.023 72.93 123.443 73.2663 122.779 73.5098C122.115 73.7488 121.378 73.8683 120.568 73.8683C119.373 73.8683 118.307 73.5916 117.369 73.0384C116.43 72.4852 115.691 71.6863 115.151 70.6419C114.611 69.5974 114.341 68.3449 114.341 66.8844C114.341 65.4194 114.614 64.1669 115.158 63.1269C115.702 62.0824 116.444 61.2835 117.382 60.7303C118.32 60.1771 119.382 59.9005 120.568 59.9005C121.325 59.9005 122.029 60.0067 122.68 60.2191C123.33 60.4316 123.91 60.7436 124.419 61.1552C124.928 61.5623 125.346 62.0625 125.674 62.6555C126.005 63.2441 126.222 63.9169 126.324 64.6737ZM130.075 73.6824V60.0863H132.538V65.8421H138.838V60.0863H141.308V73.6824H138.838V67.9067H132.538V73.6824H130.075ZM156.655 60.0863V73.6824H154.464L148.058 64.4214H147.945V73.6824H145.482V60.0863H147.686L154.086 69.354H154.205V60.0863H156.655ZM172.983 66.8844C172.983 68.3493 172.709 69.604 172.16 70.6485C171.616 71.6886 170.872 72.4852 169.929 73.0384C168.991 73.5916 167.927 73.8683 166.736 73.8683C165.546 73.8683 164.479 73.5916 163.536 73.0384C162.598 72.4808 161.854 71.6819 161.306 70.6419C160.761 69.5974 160.489 68.3449 160.489 66.8844C160.489 65.4194 160.761 64.1669 161.306 63.1269C161.854 62.0824 162.598 61.2835 163.536 60.7303C164.479 60.1771 165.546 59.9005 166.736 59.9005C167.927 59.9005 168.991 60.1771 169.929 60.7303C170.872 61.2835 171.616 62.0824 172.16 63.1269C172.709 64.1669 172.983 65.4194 172.983 66.8844ZM170.507 66.8844C170.507 65.8531 170.345 64.9835 170.022 64.2754C169.704 63.5628 169.261 63.0251 168.694 62.6622C168.128 62.2948 167.475 62.1111 166.736 62.1111C165.997 62.1111 165.344 62.2948 164.778 62.6622C164.211 63.0251 163.766 63.5628 163.443 64.2754C163.125 64.9835 162.965 65.8531 162.965 66.8844C162.965 67.9156 163.125 68.7874 163.443 69.5C163.766 70.2081 164.211 70.7459 164.778 71.1132C165.344 71.4761 165.997 71.6576 166.736 71.6576C167.475 71.6576 168.128 71.4761 168.694 71.1132C169.261 70.7459 169.704 70.2081 170.022 69.5C170.345 68.7874 170.507 67.9156 170.507 66.8844ZM176.807 73.6824V60.0863H179.27V71.6177H185.258V73.6824H176.807ZM200.511 66.8844C200.511 68.3493 200.236 69.604 199.688 70.6485C199.143 71.6886 198.4 72.4852 197.457 73.0384C196.519 73.5916 195.454 73.8683 194.264 73.8683C193.073 73.8683 192.007 73.5916 191.064 73.0384C190.126 72.4808 189.382 71.6819 188.833 70.6419C188.289 69.5974 188.017 68.3449 188.017 66.8844C188.017 65.4194 188.289 64.1669 188.833 63.1269C189.382 62.0824 190.126 61.2835 191.064 60.7303C192.007 60.1771 193.073 59.9005 194.264 59.9005C195.454 59.9005 196.519 60.1771 197.457 60.7303C198.4 61.2835 199.143 62.0824 199.688 63.1269C200.236 64.1669 200.511 65.4194 200.511 66.8844ZM198.035 66.8844C198.035 65.8531 197.873 64.9835 197.55 64.2754C197.231 63.5628 196.789 63.0251 196.222 62.6622C195.656 62.2948 195.003 62.1111 194.264 62.1111C193.525 62.1111 192.872 62.2948 192.305 62.6622C191.739 63.0251 191.294 63.5628 190.971 64.2754C190.652 64.9835 190.493 65.8531 190.493 66.8844C190.493 67.9156 190.652 68.7874 190.971 69.5C191.294 70.2081 191.739 70.7459 192.305 71.1132C192.872 71.4761 193.525 71.6576 194.264 71.6576C195.003 71.6576 195.656 71.4761 196.222 71.1132C196.789 70.7459 197.231 70.2081 197.55 69.5C197.873 68.7874 198.035 67.9156 198.035 66.8844ZM213.443 64.428C213.333 64.0696 213.18 63.7487 212.985 63.4654C212.795 63.1778 212.565 62.9321 212.295 62.7285C212.029 62.525 211.724 62.3723 211.379 62.2705C211.033 62.1643 210.657 62.1111 210.25 62.1111C209.52 62.1111 208.869 62.2948 208.298 62.6622C207.727 63.0295 207.278 63.5694 206.951 64.282C206.627 64.9901 206.466 65.8531 206.466 66.8711C206.466 67.8979 206.627 68.7675 206.951 69.4801C207.274 70.1926 207.723 70.7348 208.298 71.1066C208.874 71.4739 209.542 71.6576 210.303 71.6576C210.993 71.6576 211.591 71.5248 212.096 71.2593C212.604 70.9937 212.996 70.6175 213.271 70.1307C213.545 69.6394 213.682 69.0641 213.682 68.4046L214.24 68.4909H210.549V66.5657H216.065V68.1988C216.065 69.3628 215.818 70.3697 215.322 71.2194C214.826 72.0692 214.145 72.7242 213.277 73.1845C212.41 73.6403 211.414 73.8683 210.29 73.8683C209.037 73.8683 207.937 73.5872 206.99 73.0251C206.048 72.4586 205.311 71.6554 204.78 70.6153C204.253 69.5708 203.99 68.3316 203.99 66.8976C203.99 65.8 204.145 64.8197 204.454 63.9567C204.769 63.0937 205.207 62.3612 205.769 61.7593C206.331 61.153 206.99 60.6927 207.747 60.3784C208.504 60.0598 209.327 59.9005 210.217 59.9005C210.969 59.9005 211.671 60.0111 212.321 60.2324C212.972 60.4493 213.549 60.7591 214.054 61.1618C214.563 61.5646 214.981 62.0425 215.309 62.5958C215.636 63.149 215.851 63.7598 215.953 64.428H213.443ZM218.502 60.0863H221.284L224.61 66.101H224.742L228.068 60.0863H230.85L225.904 68.6104V73.6824H223.448V68.6104L218.502 60.0863Z" fill="#1A2580" fill-opacity="0.933333"/>
</svg>
